<mxfile host="app.diagrams.net" modified="2024-03-28T11:35:51.011Z" agent="Mozilla/5.0 (Windows NT 10.0; Win64; x64) AppleWebKit/537.36 (KHTML, like Gecko) Chrome/123.0.0.0 Safari/537.36" etag="VNQhuw_opzLY3XrsaYDs" version="24.2.0" type="github">
  <diagram name="Página-1" id="li3KHkt5xmwWXI_5Nbb5">
    <mxGraphModel dx="1232" dy="2265" grid="1" gridSize="10" guides="1" tooltips="1" connect="1" arrows="1" fold="1" page="1" pageScale="1" pageWidth="827" pageHeight="1169" math="0" shadow="0">
      <root>
        <mxCell id="0" />
        <mxCell id="1" parent="0" />
        <mxCell id="1dAcILpu-QoyRNX0zbgb-12" value="" style="edgeStyle=orthogonalEdgeStyle;rounded=0;orthogonalLoop=1;jettySize=auto;html=1;" edge="1" parent="1" source="1dAcILpu-QoyRNX0zbgb-3" target="1dAcILpu-QoyRNX0zbgb-4">
          <mxGeometry relative="1" as="geometry" />
        </mxCell>
        <mxCell id="1dAcILpu-QoyRNX0zbgb-3" value="&lt;h1&gt;Análise de Dados&lt;/h1&gt;" style="rounded=0;whiteSpace=wrap;html=1;" vertex="1" parent="1">
          <mxGeometry x="304" y="100" width="220" height="80" as="geometry" />
        </mxCell>
        <mxCell id="1dAcILpu-QoyRNX0zbgb-13" value="" style="edgeStyle=orthogonalEdgeStyle;rounded=0;orthogonalLoop=1;jettySize=auto;html=1;" edge="1" parent="1" source="1dAcILpu-QoyRNX0zbgb-4" target="1dAcILpu-QoyRNX0zbgb-5">
          <mxGeometry relative="1" as="geometry" />
        </mxCell>
        <mxCell id="1dAcILpu-QoyRNX0zbgb-4" value="&lt;h1&gt;Tomada de Decisão Baseado em Dados&lt;/h1&gt;" style="rounded=0;whiteSpace=wrap;html=1;" vertex="1" parent="1">
          <mxGeometry x="175.38" y="250" width="476" height="80" as="geometry" />
        </mxCell>
        <mxCell id="1dAcILpu-QoyRNX0zbgb-14" value="" style="edgeStyle=orthogonalEdgeStyle;rounded=0;orthogonalLoop=1;jettySize=auto;html=1;" edge="1" parent="1" source="1dAcILpu-QoyRNX0zbgb-5" target="1dAcILpu-QoyRNX0zbgb-6">
          <mxGeometry relative="1" as="geometry" />
        </mxCell>
        <mxCell id="1dAcILpu-QoyRNX0zbgb-5" value="&lt;h1&gt;Personalização e Experiência do Cliente&lt;/h1&gt;" style="rounded=0;whiteSpace=wrap;html=1;" vertex="1" parent="1">
          <mxGeometry x="274" y="400" width="279" height="80" as="geometry" />
        </mxCell>
        <mxCell id="1dAcILpu-QoyRNX0zbgb-15" value="" style="edgeStyle=orthogonalEdgeStyle;rounded=0;orthogonalLoop=1;jettySize=auto;html=1;" edge="1" parent="1" source="1dAcILpu-QoyRNX0zbgb-6" target="1dAcILpu-QoyRNX0zbgb-7">
          <mxGeometry relative="1" as="geometry" />
        </mxCell>
        <mxCell id="1dAcILpu-QoyRNX0zbgb-6" value="&lt;h1&gt;Segurança e Privacidade&lt;/h1&gt;" style="rounded=0;whiteSpace=wrap;html=1;" vertex="1" parent="1">
          <mxGeometry x="329" y="550" width="168.75" height="80" as="geometry" />
        </mxCell>
        <mxCell id="1dAcILpu-QoyRNX0zbgb-16" value="" style="edgeStyle=orthogonalEdgeStyle;rounded=0;orthogonalLoop=1;jettySize=auto;html=1;" edge="1" parent="1" source="1dAcILpu-QoyRNX0zbgb-7" target="1dAcILpu-QoyRNX0zbgb-8">
          <mxGeometry relative="1" as="geometry" />
        </mxCell>
        <mxCell id="1dAcILpu-QoyRNX0zbgb-7" value="&lt;h1&gt;Implementação e Integração&lt;/h1&gt;" style="rounded=0;whiteSpace=wrap;html=1;" vertex="1" parent="1">
          <mxGeometry x="301" y="700" width="226" height="80" as="geometry" />
        </mxCell>
        <mxCell id="1dAcILpu-QoyRNX0zbgb-17" value="" style="edgeStyle=orthogonalEdgeStyle;rounded=0;orthogonalLoop=1;jettySize=auto;html=1;" edge="1" parent="1" source="1dAcILpu-QoyRNX0zbgb-8" target="1dAcILpu-QoyRNX0zbgb-9">
          <mxGeometry relative="1" as="geometry" />
        </mxCell>
        <mxCell id="1dAcILpu-QoyRNX0zbgb-8" value="&lt;h1&gt;Capacitação de Funcionarios e Cultura Organizacional&lt;/h1&gt;" style="rounded=0;whiteSpace=wrap;html=1;" vertex="1" parent="1">
          <mxGeometry x="227" y="850" width="373.87" height="80" as="geometry" />
        </mxCell>
        <mxCell id="1dAcILpu-QoyRNX0zbgb-9" value="&lt;h1&gt;Monitoramento e Melhoria Continua&lt;/h1&gt;" style="rounded=0;whiteSpace=wrap;html=1;" vertex="1" parent="1">
          <mxGeometry x="293" y="1000" width="241.31" height="80" as="geometry" />
        </mxCell>
        <mxCell id="1dAcILpu-QoyRNX0zbgb-11" value="" style="edgeStyle=orthogonalEdgeStyle;rounded=0;orthogonalLoop=1;jettySize=auto;html=1;" edge="1" parent="1" source="1dAcILpu-QoyRNX0zbgb-10" target="1dAcILpu-QoyRNX0zbgb-3">
          <mxGeometry relative="1" as="geometry" />
        </mxCell>
        <mxCell id="1dAcILpu-QoyRNX0zbgb-10" value="&lt;h1&gt;Definição de Objetivos&lt;/h1&gt;" style="rounded=0;whiteSpace=wrap;html=1;" vertex="1" parent="1">
          <mxGeometry x="325.38" y="-50" width="176" height="80" as="geometry" />
        </mxCell>
      </root>
    </mxGraphModel>
  </diagram>
</mxfile>
